<svg width="130" height="32" viewBox="0 0 130 32" fill="none" xmlns="http://www.w3.org/2000/svg">
<g clip-path="url(#clip0_1_8)">
<path d="M25.3333 4H6.66667C5.19391 4 4 5.19391 4 6.66667V25.3333C4 26.8061 5.19391 28 6.66667 28H25.3333C26.8061 28 28 26.8061 28 25.3333V6.66667C28 5.19391 26.8061 4 25.3333 4Z" stroke="#A855F7" stroke-width="2" stroke-linecap="round" stroke-linejoin="round"/>
<path d="M9.33331 4V28" stroke="#A855F7" stroke-width="2" stroke-linecap="round" stroke-linejoin="round"/>
<path d="M4 10H9.33333" stroke="#A855F7" stroke-width="2" stroke-linecap="round" stroke-linejoin="round"/>
<path d="M4 16H28" stroke="#A855F7" stroke-width="2" stroke-linecap="round" stroke-linejoin="round"/>
<path d="M4 22H9.33333" stroke="#A855F7" stroke-width="2" stroke-linecap="round" stroke-linejoin="round"/>
<path d="M22.6667 4V28" stroke="#A855F7" stroke-width="2" stroke-linecap="round" stroke-linejoin="round"/>
<path d="M22.6667 10H28" stroke="#A855F7" stroke-width="2" stroke-linecap="round" stroke-linejoin="round"/>
<path d="M22.6667 22H28" stroke="#A855F7" stroke-width="2" stroke-linecap="round" stroke-linejoin="round"/>
</g>
<path d="M51.9833 13.9648H49.3391C49.2908 13.6228 49.1922 13.3189 49.0433 13.0533C48.8944 12.7836 48.7032 12.5542 48.4698 12.3651C48.2364 12.1759 47.9667 12.031 47.6609 11.9304C47.359 11.8298 47.031 11.7795 46.6768 11.7795C46.0369 11.7795 45.4795 11.9384 45.0046 12.2564C44.5297 12.5703 44.1615 13.0291 43.8999 13.6328C43.6383 14.2325 43.5075 14.9609 43.5075 15.8182C43.5075 16.6996 43.6383 17.4401 43.8999 18.0398C44.1655 18.6394 44.5357 19.0922 45.0107 19.3981C45.4856 19.704 46.0349 19.8569 46.6587 19.8569C47.0089 19.8569 47.3329 19.8106 47.6307 19.718C47.9325 19.6255 48.2002 19.4906 48.4336 19.3136C48.667 19.1325 48.8602 18.9131 49.0131 18.6555C49.1701 18.398 49.2788 18.1042 49.3391 17.7741L51.9833 17.7862C51.9149 18.3537 51.7438 18.901 51.4702 19.4283C51.2005 19.9515 50.8363 20.4203 50.3775 20.8349C49.9227 21.2454 49.3794 21.5714 48.7475 21.8129C48.1197 22.0503 47.4093 22.169 46.6165 22.169C45.5137 22.169 44.5277 21.9195 43.6584 21.4205C42.7931 20.9214 42.1089 20.199 41.6058 19.2532C41.1068 18.3074 40.8572 17.1624 40.8572 15.8182C40.8572 14.4699 41.1108 13.3229 41.6179 12.3771C42.125 11.4313 42.8132 10.7109 43.6825 10.2159C44.5518 9.71686 45.5298 9.46733 46.6165 9.46733C47.3329 9.46733 47.9969 9.56794 48.6087 9.76918C49.2244 9.97041 49.7698 10.2642 50.2447 10.6506C50.7196 11.0329 51.1059 11.5018 51.4038 12.0572C51.7056 12.6126 51.8988 13.2485 51.9833 13.9648ZM53.8095 22V12.7273H56.3812V22H53.8095ZM55.1014 11.532C54.719 11.532 54.391 11.4052 54.1174 11.1516C53.8477 10.8941 53.7129 10.5862 53.7129 10.228C53.7129 9.87382 53.8477 9.56996 54.1174 9.31641C54.391 9.05883 54.719 8.93004 55.1014 8.93004C55.4837 8.93004 55.8097 9.05883 56.0794 9.31641C56.353 9.56996 56.4899 9.87382 56.4899 10.228C56.4899 10.5862 56.353 10.8941 56.0794 11.1516C55.8097 11.4052 55.4837 11.532 55.1014 11.532ZM61.0131 16.6392V22H58.4413V12.7273H60.8923V14.3633H61.001C61.2062 13.824 61.5503 13.3974 62.0333 13.0835C62.5162 12.7655 63.1018 12.6065 63.79 12.6065C64.434 12.6065 64.9954 12.7474 65.4743 13.0291C65.9533 13.3108 66.3256 13.7133 66.5912 14.2365C66.8568 14.7557 66.9896 15.3755 66.9896 16.0959V22H64.4179V16.5547C64.4219 15.9872 64.277 15.5445 63.9832 15.2266C63.6894 14.9046 63.2849 14.7436 62.7698 14.7436C62.4237 14.7436 62.1178 14.8181 61.8522 14.967C61.5906 15.1159 61.3853 15.3332 61.2364 15.619C61.0915 15.9007 61.0171 16.2408 61.0131 16.6392ZM73.2424 22.1811C72.2885 22.1811 71.4675 21.9879 70.7793 21.6016C70.0951 21.2112 69.5679 20.6598 69.1976 19.9474C68.8274 19.2311 68.6422 18.3839 68.6422 17.4059C68.6422 16.4521 68.8274 15.6149 69.1976 14.8945C69.5679 14.1741 70.0891 13.6127 70.7612 13.2102C71.4373 12.8078 72.2302 12.6065 73.1397 12.6065C73.7515 12.6065 74.321 12.7051 74.8482 12.9023C75.3794 13.0955 75.8423 13.3873 76.2367 13.7777C76.6351 14.1681 76.945 14.6591 77.1664 15.2507C77.3877 15.8383 77.4984 16.5265 77.4984 17.3153V18.0217H69.6685V16.4279H75.0776C75.0776 16.0576 74.9971 15.7296 74.8361 15.4439C74.6751 15.1581 74.4518 14.9348 74.166 14.7738C73.8843 14.6088 73.5563 14.5263 73.182 14.5263C72.7916 14.5263 72.4455 14.6168 72.1436 14.7979C71.8458 14.975 71.6124 15.2145 71.4434 15.5163C71.2743 15.8142 71.1878 16.1462 71.1838 16.5124V18.0277C71.1838 18.4865 71.2683 18.8829 71.4373 19.217C71.6104 19.551 71.8539 19.8086 72.1678 19.9897C72.4817 20.1708 72.854 20.2614 73.2846 20.2614C73.5704 20.2614 73.832 20.2211 74.0694 20.1406C74.3069 20.0601 74.5101 19.9394 74.6792 19.7784C74.8482 19.6174 74.977 19.4202 75.0655 19.1868L77.4441 19.3438C77.3233 19.9152 77.0758 20.4143 76.7015 20.8409C76.3313 21.2635 75.8523 21.5935 75.2647 21.831C74.6812 22.0644 74.007 22.1811 73.2424 22.1811ZM80.5953 9.63636L83.5836 19.0298H83.6983L86.6926 9.63636H89.5904L85.3283 22H81.9597L77.6916 9.63636H80.5953ZM92.6451 22.1751C92.0534 22.1751 91.5262 22.0724 91.0634 21.8672C90.6006 21.6579 90.2343 21.35 89.9647 20.9435C89.699 20.533 89.5662 20.0219 89.5662 19.4102C89.5662 18.895 89.6608 18.4624 89.85 18.1122C90.0391 17.7621 90.2967 17.4804 90.6227 17.267C90.9487 17.0537 91.319 16.8928 91.7335 16.7841C92.152 16.6754 92.5907 16.599 93.0495 16.5547C93.5888 16.4983 94.0235 16.446 94.3535 16.3977C94.6835 16.3454 94.923 16.2689 95.0719 16.1683C95.2208 16.0677 95.2953 15.9188 95.2953 15.7216V15.6854C95.2953 15.303 95.1745 15.0072 94.9331 14.7979C94.6956 14.5887 94.3575 14.484 93.9189 14.484C93.456 14.484 93.0878 14.5866 92.8141 14.7919C92.5404 14.9931 92.3593 15.2467 92.2708 15.5526L89.8922 15.3594C90.013 14.7959 90.2504 14.3089 90.6046 13.8984C90.9587 13.4839 91.4155 13.166 91.975 12.9446C92.5384 12.7192 93.1904 12.6065 93.9309 12.6065C94.4461 12.6065 94.9391 12.6669 95.41 12.7876C95.8849 12.9084 96.3055 13.0955 96.6717 13.3491C97.042 13.6026 97.3337 13.9286 97.5471 14.3271C97.7604 14.7215 97.867 15.1944 97.867 15.7457V22H95.4281V20.7141H95.3556C95.2067 21.0039 95.0075 21.2595 94.758 21.4808C94.5085 21.6982 94.2086 21.8692 93.8585 21.994C93.5083 22.1147 93.1039 22.1751 92.6451 22.1751ZM93.3816 20.4002C93.7599 20.4002 94.0939 20.3258 94.3837 20.1768C94.6735 20.0239 94.9009 19.8187 95.0659 19.5611C95.2309 19.3035 95.3134 19.0117 95.3134 18.6857V17.7017C95.2329 17.754 95.1222 17.8023 94.9814 17.8466C94.8445 17.8868 94.6896 17.9251 94.5165 17.9613C94.3435 17.9935 94.1704 18.0237 93.9973 18.0518C93.8243 18.076 93.6673 18.0981 93.5265 18.1183C93.2246 18.1625 92.961 18.233 92.7356 18.3295C92.5102 18.4261 92.3352 18.5569 92.2104 18.7219C92.0856 18.8829 92.0233 19.0842 92.0233 19.3256C92.0233 19.6758 92.15 19.9434 92.4036 20.1286C92.6612 20.3097 92.9872 20.4002 93.3816 20.4002ZM105.809 18.0518V12.7273H108.38V22H105.911V20.3157H105.815C105.605 20.859 105.257 21.2957 104.77 21.6257C104.287 21.9557 103.698 22.1207 103.001 22.1207C102.382 22.1207 101.836 21.9799 101.365 21.6982C100.895 21.4164 100.526 21.016 100.261 20.4968C99.9991 19.9776 99.8662 19.3558 99.8622 18.6314V12.7273H102.434V18.1726C102.438 18.7199 102.585 19.1526 102.875 19.4705C103.164 19.7885 103.553 19.9474 104.04 19.9474C104.35 19.9474 104.639 19.877 104.909 19.7362C105.179 19.5913 105.396 19.378 105.561 19.0962C105.73 18.8145 105.813 18.4664 105.809 18.0518ZM113.009 9.63636V22H110.437V9.63636H113.009ZM120.001 12.7273V14.6591H114.417V12.7273H120.001ZM115.685 10.5057H118.257V19.1506C118.257 19.388 118.293 19.5732 118.365 19.706C118.438 19.8348 118.538 19.9253 118.667 19.9776C118.8 20.0299 118.953 20.0561 119.126 20.0561C119.247 20.0561 119.368 20.046 119.488 20.0259C119.609 20.0018 119.702 19.9837 119.766 19.9716L120.17 21.8853C120.042 21.9255 119.861 21.9718 119.627 22.0241C119.394 22.0805 119.11 22.1147 118.776 22.1268C118.156 22.1509 117.613 22.0684 117.146 21.8793C116.683 21.6901 116.323 21.3963 116.065 20.9979C115.808 20.5994 115.681 20.0964 115.685 19.4886V10.5057Z" fill="white"/>
<defs>
<clipPath id="clip0_1_8">
<rect width="32" height="32" fill="white"/>
</clipPath>
</defs>
</svg>
